<?xml version="1.0" encoding="utf-8"?>
<!--
#   Copyright 2019 NEC Corporation
#
#   Licensed under the Apache License, Version 2.0 (the "License");
#   you may not use this file except in compliance with the License.
#   You may obtain a copy of the License at
#
#       http://www.apache.org/licenses/LICENSE-2.0
#
#   Unless required by applicable law or agreed to in writing, software
#   distributed under the License is distributed on an "AS IS" BASIS,
#   WITHOUT WARRANTIES OR CONDITIONS OF ANY KIND, either express or implied.
#   See the License for the specific language governing permissions and
#   limitations under the License.
-->
<!-- Generator: Adobe Illustrator 25.2.1, SVG Export Plug-In . SVG Version: 6.00 Build 0)  -->
<svg version="1.1" id="レイヤー_1" xmlns="http://www.w3.org/2000/svg" xmlns:xlink="http://www.w3.org/1999/xlink" x="0px"
	 y="0px" viewBox="0 0 1210 300" style="enable-background:new 0 0 1210 300;" xml:space="preserve">
<style type="text/css">
	.st0{fill:#FFFFFF;}
</style>
<g>
	<g>
		<polygon class="st0" points="242.37,138.69 233.48,111.31 224.58,138.69 195.79,138.69 219.08,155.61 210.19,182.99 
			233.48,166.07 256.77,182.99 247.87,155.61 271.17,138.69 		"/>
		<path class="st0" d="M409.09,109.16c-0.85,3.58-1.31,7.49-1.33,11.44c-3.25-0.77-6.89-3.15-9.91-6.17
			c-3.03-3.03-5.4-6.66-6.17-9.91c3.94-0.02,7.86-0.48,11.43-1.33L417.8,88.5l-51.87,7.41l-93.32,93.32
			c-2.04,2.04-4.23,3.82-6.49,5.47c-21.61,15.82-52.18,14.04-71.69-5.47c-13.96-13.96-18.82-33.57-14.7-51.52l-30.94,30.94
			c3.51,16.23,11.51,30.91,23.41,42.81c16.38,16.38,38.16,25.4,61.32,25.4c23.17,0,44.94-9.02,61.32-25.4l78.83-78.83
			c0.85-3.58,1.31-7.49,1.33-11.44c3.25,0.77,6.89,3.15,9.91,6.17c3.03,3.03,5.4,6.66,6.17,9.91c-3.95,0.02-7.86,0.48-11.44,1.33
			l-78.83,78.83c-17.98,17.98-41.88,27.88-67.3,27.88s-49.33-9.9-67.3-27.88c-11.79-11.79-19.99-26.12-24.31-41.91l-24.63,24.64
			c6.15,14.35,15.03,27.79,26.73,39.49c25.21,25.21,58.51,37.54,91.62,37c31.72-0.52,63.29-12.85,87.44-37l93.32-93.32l7.41-51.87
			L409.09,109.16z M375.01,120.6c-0.03-6.14-1.09-12.23-3.14-17c-1.04-2.42-2.31-4.53-3.87-6.09c2.32,2.32,5.8,4.06,9.85,5.23
			c4.03,1.16,8.63,1.75,13.24,1.77C389.56,111.01,381.51,119.06,375.01,120.6z M391.67,137.26c1.54-6.5,9.59-14.55,16.09-16.09
			c0.05,9.25,2.38,18.46,7,23.09C410.14,139.63,400.93,137.31,391.67,137.26z"/>
		<path class="st0" d="M194.43,111.03c0,0,4.24-3.83,6.49-5.48c21.61-15.82,52.18-14.04,71.7,5.47
			c13.96,13.96,18.82,33.57,14.7,51.52l30.94-30.94c-3.51-16.23-11.51-30.91-23.41-42.81c-16.38-16.38-38.16-25.4-61.32-25.4
			c-23.17,0-44.94,9.02-61.32,25.4l-78.84,78.84c-0.85,3.58-1.31,7.49-1.33,11.44c-3.25-0.77-6.89-3.15-9.91-6.17
			c-3.03-3.03-5.4-6.66-6.17-9.91c3.95-0.02,7.86-0.48,11.44-1.33l78.83-78.83c17.98-17.98,41.88-27.88,67.3-27.88
			s49.33,9.9,67.3,27.88c11.79,11.79,19.99,26.12,24.31,41.91l24.65-24.65c-6.15-14.35-15.03-27.79-26.73-39.49
			c-25.21-25.21-58.51-37.54-91.62-37c-31.72,0.52-63.29,12.85-87.44,37l-93.32,93.32l-7.41,51.85l14.69-14.69
			c0.85-3.58,1.31-7.49,1.33-11.44c3.25,0.77,6.89,3.15,9.91,6.17c3.03,3.03,5.4,6.66,6.17,9.91c-3.94,0.02-7.86,0.48-11.43,1.33
			l-14.69,14.69l51.87-7.41C101.12,204.34,194.43,111.03,194.43,111.03z M59.3,179.07c-0.05-9.25-2.38-18.46-7-23.09
			c4.63,4.63,13.84,6.96,23.09,7C73.84,169.48,65.79,177.53,59.3,179.07z M89.19,197.5c-4.03-1.16-8.63-1.75-13.24-1.77
			c1.54-6.5,9.59-14.55,16.09-16.09c0.03,6.14,1.09,12.23,3.14,17c1.04,2.42,2.31,4.53,3.87,6.09
			C96.72,200.41,93.25,198.67,89.19,197.5z"/>
	</g>
	<g>
		<path class="st0" d="M1037.6,41.81c-13.52,0-27.53,8-34.91,18.24V41.81h-29.1v127.06h29.1V127.6c0-33.93,9.14-56.78,34.91-56.78
			V41.81z"/>
		<path class="st0" d="M786.57,139.85c-0.28-0.34-0.71-1.08-0.71-2.52v-0.1V89.61v-6.03c0-22.22-17.45-40.41-39.4-41.78H708.9v29.02
			l37.56,0.14c5.87,1.22,10.3,6.41,10.3,12.62l-0.55,1.59h-28.89c-13.83,0-28.75,12.05-28.75,31.53v20.63
			c0,19.48,14.92,31.53,28.75,31.53h29.8c4.83,0,9.78-1.5,14.2-4.25c4.42,2.75,9.37,4.25,14.2,4.25h11.56v-29.02h-10.51V139.85z
			 M756.76,137.24v0.1c0,1.43-0.42,2.18-0.71,2.52h-27.68c-0.28-0.34-0.71-1.08-0.71-2.52v-20.63c0-1.43,0.42-2.18,0.71-2.52h28.38
			v23.05H756.76z"/>
		<path class="st0" d="M935.18,23.78h-29.1v18.03h-13.71v29.02h13.71v66.51c0,19.48,14.92,31.53,28.75,31.53h24.98v-29.02h-23.92
			c-0.28-0.34-0.71-1.08-0.71-2.52V70.82h24.63V41.81h-24.63V23.78z"/>
		<path class="st0" d="M850.5,85.17l-15.54,0.14c-4.01,0-7.27-3.25-7.27-7.25s3.26-7.25,7.27-7.25h43.63v-29h-43.63
			c-20.06,0-36.37,16.26-36.37,36.26s16.31,36.26,36.37,36.26h15.54c5.87,1.22,10.3,6.41,10.3,12.62c0,7.11-5.8,12.9-12.93,12.9
			h-37.02v29.02h37.02c23.18,0,42.04-18.81,42.04-41.92C889.91,104.72,872.45,86.54,850.5,85.17z"/>
		<polygon class="st0" points="696.47,41.81 660.74,41.81 642.44,73.96 624.13,41.81 588.41,41.81 624.57,105.34 588.41,168.87 
			624.13,168.87 642.44,136.71 660.74,168.87 696.47,168.87 660.3,105.34 		"/>
		<polygon class="st0" points="575.76,52.8 575.76,23.78 480.72,23.78 480.72,168.87 575.76,168.87 575.76,139.85 514.77,139.85 
			514.77,110.83 566.46,110.83 566.46,81.81 514.77,81.81 514.77,52.8 		"/>
		<path class="st0" d="M1103.01,41.81c-35.19,0-63.72,28.44-63.72,63.53s28.53,63.53,63.72,63.53s63.72-28.44,63.72-63.53
			S1138.2,41.81,1103.01,41.81z M1121.06,113.56l11.15,34.22l-29.2-21.15l-29.2,21.15l11.15-34.22l-29.2-21.15h36.09L1103,58.19
			l11.15,34.22h36.09L1121.06,113.56z"/>
	</g>
	<g>
		<path class="st0" d="M536.65,247.7h-34.19v19.59h40.38v15.2h-62.12v-81.98h62.25v15.26h-40.51v17.29h34.19V247.7z"/>
		<path class="st0" d="M575.55,254.68v27.81h-21.74v-81.98h35.98c6.9,0,13,1.15,18.3,3.46c5.31,2.31,9.41,5.59,12.33,9.85
			c2.91,4.26,4.37,9.09,4.37,14.5c0,8-3.15,14.39-9.45,19.17c-6.3,4.79-14.94,7.18-25.92,7.18h-13.87V254.68z M575.55,239.42h14.25
			c4.21,0,7.42-0.96,9.63-2.87c2.21-1.91,3.31-4.62,3.31-8.11c0-3.83-1.14-6.89-3.41-9.18c-2.27-2.29-5.37-3.45-9.29-3.49h-14.49
			L575.55,239.42L575.55,239.42z"/>
		<path class="st0" d="M711.35,243.19c0,8-1.63,15.07-4.89,21.23s-7.9,10.9-13.91,14.22c-6.01,3.32-12.85,4.98-20.53,4.98
			s-14.49-1.6-20.44-4.81s-10.58-7.8-13.9-13.77s-5.07-12.82-5.23-20.55v-4.62c0-8.03,1.62-15.12,4.86-21.25
			c3.24-6.14,7.89-10.88,13.94-14.22s12.93-5.01,20.66-5.01c7.64,0,14.45,1.65,20.44,4.96c5.99,3.3,10.64,8,13.97,14.1
			c3.32,6.1,5.01,13.09,5.05,20.97v3.77H711.35z M689.24,239.76c0-8.15-1.5-14.33-4.49-18.55s-7.28-6.33-12.85-6.33
			c-10.9,0-16.66,7.43-17.28,22.3l-0.06,6.03c0,8.03,1.46,14.21,4.4,18.52c2.93,4.32,7.29,6.47,13.07,6.47
			c5.49,0,9.72-2.12,12.7-6.36c2.97-4.24,4.48-10.34,4.52-18.3v-3.78H689.24z"/>
		<path class="st0" d="M794.99,254.74c-0.29,5.71-1.98,10.75-5.08,15.12c-3.1,4.37-7.44,7.76-13.04,10.16s-11.98,3.6-19.17,3.6
			c-11.85,0-21.18-3.51-28-10.53c-6.81-7.02-10.22-16.93-10.22-29.73v-4.05c0-8.03,1.54-15.06,4.61-21.09
			c3.08-6.02,7.5-10.68,13.29-13.96c5.78-3.28,12.47-4.93,20.07-4.93c10.94,0,19.74,2.62,26.38,7.85
			c6.65,5.24,10.43,12.45,11.33,21.65H773.5c-0.17-4.99-1.55-8.58-4.15-10.75c-2.6-2.18-6.57-3.27-11.89-3.27
			c-5.41,0-9.37,1.84-11.89,5.52c-2.52,3.68-3.84,9.55-3.96,17.62v5.8c0,8.75,1.21,15,3.62,18.75c2.42,3.75,6.58,5.63,12.48,5.63
			c5,0,8.81-1.07,11.46-3.21c2.64-2.14,4.05-5.54,4.21-10.19L794.99,254.74L794.99,254.74z"/>
		<path class="st0" d="M880.85,282.5h-21.62v-34.23h-32.02v34.23h-21.74v-81.98h21.74v32.54h32.02v-32.54h21.62V282.5z"/>
	</g>
</g>
</svg>
