<?xml version="1.0" encoding="utf-8"?>
<!--
#   Copyright 2019 NEC Corporation
#
#   Licensed under the Apache License, Version 2.0 (the "License");
#   you may not use this file except in compliance with the License.
#   You may obtain a copy of the License at
#
#       http://www.apache.org/licenses/LICENSE-2.0
#
#   Unless required by applicable law or agreed to in writing, software
#   distributed under the License is distributed on an "AS IS" BASIS,
#   WITHOUT WARRANTIES OR CONDITIONS OF ANY KIND, either express or implied.
#   See the License for the specific language governing permissions and
#   limitations under the License.
-->
<!-- Generator: Adobe Illustrator 25.1.0, SVG Export Plug-In . SVG Version: 6.00 Build 0)  -->
<svg version="1.1" id="レイヤー_1" xmlns="http://www.w3.org/2000/svg" xmlns:xlink="http://www.w3.org/1999/xlink" x="0px"
	 y="0px" viewBox="0 0 240 60" style="enable-background:new 0 0 240 60;" xml:space="preserve">
<style type="text/css">
	.st0{fill:#00325F;}
	.st1{fill:#FFFFFF;}
	.st2{fill:url(#SVGID_1_);}
	.st3{fill:url(#SVGID_2_);}
	.st4{fill:#8099AF;}
	.st5{fill:url(#SVGID_3_);}
	.st6{fill:url(#SVGID_4_);}
</style>
<g>
	<g>
		<path class="st0" d="M210.02,6.78c-2.82,0-5.75,1.67-7.29,3.81V6.78h-6.08v26.55h6.08v-8.62c0-7.09,1.91-11.86,7.29-11.86V6.78z"
			/>
		<path class="st0" d="M157.57,27.26c-0.06-0.07-0.15-0.23-0.15-0.53v-0.02v-9.95v-1.26c0-4.64-3.65-8.44-8.23-8.73h-7.85v6.06
			l7.85,0.03c1.23,0.25,2.15,1.34,2.15,2.64l-0.12,0.33h-6.04c-2.89,0-6.01,2.52-6.01,6.59v4.31c0,4.07,3.12,6.59,6.01,6.59h6.23
			c1.01,0,2.04-0.31,2.97-0.89c0.92,0.57,1.96,0.89,2.97,0.89h2.41v-6.06H157.57z M151.34,26.72v0.02c0,0.3-0.09,0.45-0.15,0.53
			h-5.78c-0.06-0.07-0.15-0.23-0.15-0.53v-4.31c0-0.3,0.09-0.45,0.15-0.53h5.93V26.72z"/>
		<path class="st0" d="M188.62,3.01h-6.08v3.77h-2.86v6.06h2.86v13.9c0,4.07,3.12,6.59,6.01,6.59h5.22v-6.06h-5
			c-0.06-0.07-0.15-0.23-0.15-0.53v-13.9h5.15V6.78h-5.15V3.01z"/>
		<path class="st0" d="M170.93,15.84l-3.25,0.03c-0.84,0-1.52-0.68-1.52-1.51s0.68-1.51,1.52-1.51h9.12V6.78h-9.12
			c-4.19,0-7.6,3.4-7.6,7.58s3.41,7.58,7.6,7.58l3.25,0c1.23,0.25,2.15,1.34,2.15,2.64c0,1.49-1.21,2.7-2.7,2.7h-7.74v6.06h7.74
			c4.84,0,8.78-3.93,8.78-8.76C179.16,19.93,175.51,16.13,170.93,15.84z"/>
		<polygon class="st0" points="138.74,6.78 131.28,6.78 127.45,13.5 123.63,6.78 116.16,6.78 123.72,20.05 116.16,33.33 
			123.63,33.33 127.45,26.61 131.28,33.33 138.74,33.33 131.19,20.05 		"/>
		<polygon class="st0" points="113.52,9.08 113.52,3.01 93.66,3.01 93.66,33.33 113.52,33.33 113.52,27.26 100.78,27.26 
			100.78,21.2 111.58,21.2 111.58,15.14 100.78,15.14 100.78,9.08 		"/>
		<path class="st0" d="M223.69,6.78c-7.35,0-13.31,5.94-13.31,13.27c0,7.33,5.96,13.27,13.31,13.27c7.35,0,13.31-5.94,13.31-13.27
			C237,12.72,231.04,6.78,223.69,6.78z M227.46,21.77l2.33,7.15l-6.1-4.42l-6.1,4.42l2.33-7.15l-6.1-4.42h7.54l2.33-7.15l2.33,7.15
			h7.54L227.46,21.77z"/>
	</g>
	<g>
		<path class="st1" d="M74.98,19.89c-0.32,1.36-2.01,3.03-3.37,3.36c-0.01-1.93-0.5-3.85-1.47-4.82
			C71.12,19.39,73.05,19.88,74.98,19.89z"/>
		<polygon class="st1" points="46.88,36.26 42.01,32.73 37.13,36.26 38.99,30.55 34.12,27.01 40.14,27.01 42.01,21.3 43.87,27.01 
			49.89,27.01 45.02,30.55 		"/>
		<path class="st1" d="M8.93,32.08c-0.32,1.36-2.01,3.03-3.37,3.36c-0.01-1.93-0.5-3.85-1.47-4.82C5.06,31.59,6.99,32.07,8.93,32.08
			z"/>
		<path class="st1" d="M4.1,40.38c0.97-0.97,1.46-2.89,1.47-4.82c0.68,0.16,1.44,0.66,2.07,1.29c0.63,0.63,1.13,1.39,1.29,2.07
			C6.99,38.92,5.06,39.41,4.1,40.38z"/>
		<path class="st1" d="M9.05,38.91c0.32-1.36,2.01-3.03,3.37-3.36c0.01,1.93,0.5,3.85,1.47,4.82C12.91,39.41,10.98,38.92,9.05,38.91
			z"/>
		<path class="st1" d="M12.41,35.44c-0.68-0.16-1.44-0.66-2.07-1.29c-0.63-0.63-1.13-1.39-1.29-2.07c1.94-0.01,3.86-0.5,4.83-1.46
			C12.91,31.59,12.42,33.51,12.41,35.44z"/>
		<path class="st1" d="M70.15,28.18c0.97-0.97,1.46-2.89,1.47-4.82c0.68,0.16,1.44,0.66,2.07,1.29c0.63,0.63,1.13,1.39,1.29,2.07
			C73.05,26.73,71.12,27.21,70.15,28.18z"/>
		<path class="st1" d="M75.1,26.72c0.32-1.36,2.01-3.03,3.37-3.36c0.01,1.93,0.5,3.85,1.47,4.82C78.97,27.21,77.04,26.73,75.1,26.72
			z"/>
		<path class="st1" d="M78.47,23.24c-0.68-0.16-1.44-0.66-2.07-1.29c-0.63-0.63-1.13-1.39-1.29-2.07c1.94-0.01,3.86-0.5,4.83-1.46
			C78.97,19.39,78.48,21.31,78.47,23.24z"/>
		<polygon class="st1" points="23.15,31.9 23.15,31.9 22.97,32.07 		"/>
		<path class="st0" d="M31.29,40.13c-5.89-5.92-5.89-15.54,0-21.46c5.92-5.89,15.54-5.89,21.46,0c5.89,5.92,5.89,15.54,0,21.46
			C46.82,46.01,37.21,46.01,31.29,40.13z M40.14,27.01h-6.02l4.87,3.53l-1.86,5.71l4.87-3.53l4.87,3.53l-1.86-5.71l4.87-3.53h-6.02
			l-1.86-5.71L40.14,27.01z"/>
		<linearGradient id="SVGID_1_" gradientUnits="userSpaceOnUse" x1="64.6674" y1="44.216" x2="37.7417" y2="17.2903">
			<stop  offset="0" style="stop-color:#00325F"/>
			<stop  offset="1" style="stop-color:#8099AF"/>
		</linearGradient>
		<path class="st2" d="M79.94,18.42c-0.97,0.97-1.46,2.89-1.47,4.82c0,0.04,0,0.08,0,0.12c0.01,1.93,0.5,3.85,1.47,4.82
			c-0.97-0.97-2.89-1.45-4.83-1.46c-0.04,0-0.08,0-0.12,0c-1.94,0.01-3.86,0.5-4.83,1.46L55.47,42.82c-7.43,7.41-19.48,7.41-26.91,0
			c-3.08-3.07-4.88-6.93-5.41-10.92l-6.17,6.15c1.27,3.67,3.37,7.11,6.3,10.03c5.28,5.26,12.24,7.83,19.17,7.72
			c6.64-0.11,13.24-2.68,18.3-7.72l19.52-19.47l1.76-12.28L79.94,18.42z"/>
		<linearGradient id="SVGID_2_" gradientUnits="userSpaceOnUse" x1="62.0433" y1="36.3228" x2="40.3853" y2="14.6649">
			<stop  offset="0" style="stop-color:#8099AF"/>
			<stop  offset="1" style="stop-color:#00325F"/>
		</linearGradient>
		<path class="st3" d="M69.72,18.09L50.19,37.55c-4.51,4.5-11.85,4.5-16.36,0s-4.51-11.81,0-16.31L23.15,31.9
			c0.53,3.99,2.33,7.85,5.41,10.92c7.43,7.41,19.48,7.41,26.91,0l14.68-14.64c0.97-0.97,1.46-2.89,1.47-4.82c0-0.04,0-0.08,0-0.12
			c-0.01-1.93-0.5-3.85-1.47-4.82c0.97,0.97,2.89,1.45,4.83,1.46c0.04,0,0.08,0,0.12,0c1.94-0.01,3.86-0.5,4.83-1.46l2.1-2.09
			L69.72,18.09z"/>
		<path class="st4" d="M76.4,21.95c-0.63-0.63-1.13-1.39-1.29-2.07c-0.04,0-0.08,0-0.12,0c-0.32,1.36-2.01,3.03-3.37,3.36
			c0,0.04,0,0.08,0,0.12c0.68,0.16,1.44,0.66,2.07,1.29c0.63,0.63,1.13,1.39,1.29,2.07c0.04,0,0.08,0,0.12,0
			c0.32-1.36,2.01-3.03,3.37-3.36c0-0.04,0-0.08,0-0.12C77.79,23.08,77.03,22.58,76.4,21.95z"/>
		<linearGradient id="SVGID_3_" gradientUnits="userSpaceOnUse" x1="46.2899" y1="41.5096" x2="19.3642" y2="14.5839">
			<stop  offset="0" style="stop-color:#00325F"/>
			<stop  offset="1" style="stop-color:#8099AF"/>
		</linearGradient>
		<path class="st5" d="M60.75,10.72C55.47,5.46,48.51,2.89,41.58,3c-6.64,0.11-13.24,2.68-18.3,7.72L3.76,30.19L2,42.47l2.1-2.09
			c0.97-0.97,1.46-2.89,1.47-4.82c0-0.04,0-0.08,0-0.12c-0.01-1.93-0.5-3.85-1.47-4.82c0.97,0.97,2.89,1.45,4.83,1.46
			c0.04,0,0.08,0,0.12,0c1.94-0.01,3.86-0.5,4.83-1.46l2.54-2.53l12.14-12.1c7.43-7.41,19.48-7.41,26.91,0
			c3.08,3.07,4.88,6.93,5.41,10.92l6.17-6.15C65.78,17.09,63.68,13.64,60.75,10.72z"/>
		<linearGradient id="SVGID_4_" gradientUnits="userSpaceOnUse" x1="43.6462" y1="44.135" x2="21.9883" y2="22.4771">
			<stop  offset="0" style="stop-color:#8099AF"/>
			<stop  offset="1" style="stop-color:#00325F"/>
		</linearGradient>
		<path class="st6" d="M60.88,26.9c-0.53-3.99-2.33-7.85-5.41-10.92c-7.43-7.41-19.48-7.41-26.91,0L13.88,30.62
			c-0.97,0.97-1.46,2.89-1.47,4.82c0,0.04,0,0.08,0,0.12c0.01,1.93,0.5,3.85,1.47,4.82c-0.97-0.97-2.89-1.45-4.83-1.46
			c-0.04,0-0.08,0-0.12,0c-1.94,0.01-3.86,0.5-4.83,1.46L2,42.47l12.31-1.75l19.52-19.47c4.51-4.5,11.85-4.5,16.36,0
			s4.51,11.81,0,16.31L60.88,26.9z"/>
		<path class="st4" d="M10.34,34.15c-0.63-0.63-1.13-1.39-1.29-2.07c-0.04,0-0.08,0-0.12,0c-0.32,1.36-2.01,3.03-3.37,3.36
			c0,0.04,0,0.08,0,0.12c0.68,0.16,1.44,0.66,2.07,1.29c0.63,0.63,1.13,1.39,1.29,2.07c0.04,0,0.08,0,0.12,0
			c0.32-1.36,2.01-3.03,3.37-3.36c0-0.04,0-0.08,0-0.12C11.73,35.28,10.97,34.78,10.34,34.15z"/>
	</g>
	<g>
		<path class="st0" d="M105.35,49.8h-7.14v4.09h8.44v3.18H93.66V39.94h13.01v3.19h-8.46v3.61h7.14V49.8z"/>
		<path class="st0" d="M113.48,51.26v5.81h-4.54V39.94h7.52c1.44,0,2.72,0.24,3.82,0.72c1.11,0.48,1.97,1.17,2.58,2.06
			c0.61,0.89,0.91,1.9,0.91,3.03c0,1.67-0.66,3.01-1.97,4.01c-1.32,1-3.12,1.5-5.42,1.5H113.48z M113.48,48.07h2.98
			c0.88,0,1.55-0.2,2.01-0.6c0.46-0.4,0.69-0.96,0.69-1.69c0-0.8-0.24-1.44-0.71-1.92c-0.47-0.48-1.12-0.72-1.94-0.73h-3.03V48.07z"
			/>
		<path class="st0" d="M141.85,48.86c0,1.67-0.34,3.15-1.02,4.44c-0.68,1.29-1.65,2.28-2.91,2.97c-1.26,0.69-2.69,1.04-4.29,1.04
			s-3.03-0.34-4.27-1.01c-1.24-0.67-2.21-1.63-2.91-2.88c-0.69-1.25-1.06-2.68-1.09-4.29v-0.96c0-1.68,0.34-3.16,1.02-4.44
			c0.68-1.28,1.65-2.27,2.91-2.97c1.26-0.7,2.7-1.05,4.32-1.05c1.6,0,3.02,0.35,4.27,1.04c1.25,0.69,2.22,1.67,2.92,2.95
			c0.69,1.27,1.05,2.74,1.05,4.38V48.86z M137.23,48.14c0-1.7-0.31-2.99-0.94-3.88c-0.63-0.88-1.52-1.32-2.69-1.32
			c-2.28,0-3.48,1.55-3.61,4.66l-0.01,1.26c0,1.68,0.31,2.97,0.92,3.87c0.61,0.9,1.52,1.35,2.73,1.35c1.15,0,2.03-0.44,2.65-1.33
			c0.62-0.89,0.94-2.16,0.94-3.82V48.14z"/>
		<path class="st0" d="M159.33,51.27c-0.06,1.19-0.41,2.25-1.06,3.16c-0.65,0.91-1.56,1.62-2.72,2.12c-1.17,0.5-2.5,0.75-4.01,0.75
			c-2.48,0-4.43-0.73-5.85-2.2c-1.42-1.47-2.14-3.54-2.14-6.21v-0.85c0-1.68,0.32-3.15,0.96-4.41c0.64-1.26,1.57-2.23,2.78-2.92
			c1.21-0.69,2.61-1.03,4.19-1.03c2.29,0,4.12,0.55,5.51,1.64c1.39,1.09,2.18,2.6,2.37,4.52h-4.53c-0.03-1.04-0.32-1.79-0.87-2.25
			c-0.54-0.45-1.37-0.68-2.48-0.68c-1.13,0-1.96,0.38-2.48,1.15c-0.53,0.77-0.8,2-0.83,3.68v1.21c0,1.83,0.25,3.13,0.76,3.92
			c0.5,0.78,1.37,1.18,2.61,1.18c1.04,0,1.84-0.22,2.39-0.67c0.55-0.45,0.85-1.16,0.88-2.13H159.33z"/>
		<path class="st0" d="M177.27,57.07h-4.52v-7.15h-6.69v7.15h-4.54V39.94h4.54v6.8h6.69v-6.8h4.52V57.07z"/>
	</g>
</g>
</svg>
