<!--
#   Copyright 2019 NEC Corporation
#
#   Licensed under the Apache License, Version 2.0 (the "License");
#   you may not use this file except in compliance with the License.
#   You may obtain a copy of the License at
#
#       http://www.apache.org/licenses/LICENSE-2.0
#
#   Unless required by applicable law or agreed to in writing, software
#   distributed under the License is distributed on an "AS IS" BASIS,
#   WITHOUT WARRANTIES OR CONDITIONS OF ANY KIND, either express or implied.
#   See the License for the specific language governing permissions and
#   limitations under the License.
-->
<?xml version="1.0" encoding="utf-8"?>
<!-- Generator: Adobe Illustrator 25.1.0, SVG Export Plug-In . SVG Version: 6.00 Build 0)  -->
<svg version="1.1" id="レイヤー_1" xmlns="http://www.w3.org/2000/svg" xmlns:xlink="http://www.w3.org/1999/xlink" x="0px"
	 y="0px" viewBox="0 0 132 28" style="enable-background:new 0 0 132 28;" xml:space="preserve">
<style type="text/css">
	.st0{fill:#FFFFFF;}
</style>
<g>
	<path class="st0" d="M62,15.3h-7v4h8.2v3.1H50.6V5.7h12.7v3.1H55v3.5h7V15.3z"/>
	<path class="st0" d="M69.9,16.7v5.7h-4.4V5.7h7.3c1.4,0,2.6,0.2,3.7,0.7c1.1,0.5,1.9,1.1,2.5,2c0.6,0.9,0.9,1.8,0.9,2.9
		c0,1.6-0.6,2.9-1.9,3.9c-1.3,1-3,1.5-5.3,1.5H69.9z M69.9,13.6h2.9c0.9,0,1.5-0.2,2-0.6c0.4-0.4,0.7-0.9,0.7-1.6
		c0-0.8-0.2-1.4-0.7-1.9c-0.5-0.5-1.1-0.7-1.9-0.7h-2.9V13.6z"/>
	<path class="st0" d="M97.5,14.3c0,1.6-0.3,3.1-1,4.3c-0.7,1.3-1.6,2.2-2.8,2.9c-1.2,0.7-2.6,1-4.2,1c-1.6,0-2.9-0.3-4.2-1
		c-1.2-0.7-2.2-1.6-2.8-2.8c-0.7-1.2-1-2.6-1.1-4.2v-0.9c0-1.6,0.3-3.1,1-4.3c0.7-1.2,1.6-2.2,2.8-2.9c1.2-0.7,2.6-1,4.2-1
		c1.6,0,2.9,0.3,4.2,1c1.2,0.7,2.2,1.6,2.8,2.9c0.7,1.2,1,2.7,1,4.3V14.3z M93,13.7c0-1.7-0.3-2.9-0.9-3.8c-0.6-0.9-1.5-1.3-2.6-1.3
		c-2.2,0-3.4,1.5-3.5,4.5l0,1.2c0,1.6,0.3,2.9,0.9,3.8c0.6,0.9,1.5,1.3,2.7,1.3c1.1,0,2-0.4,2.6-1.3c0.6-0.9,0.9-2.1,0.9-3.7V13.7z"
		/>
	<path class="st0" d="M114.5,16.7c-0.1,1.2-0.4,2.2-1,3.1c-0.6,0.9-1.5,1.6-2.7,2.1c-1.1,0.5-2.4,0.7-3.9,0.7
		c-2.4,0-4.3-0.7-5.7-2.1c-1.4-1.4-2.1-3.4-2.1-6v-0.8c0-1.6,0.3-3.1,0.9-4.3c0.6-1.2,1.5-2.2,2.7-2.8c1.2-0.7,2.5-1,4.1-1
		c2.2,0,4,0.5,5.4,1.6c1.4,1.1,2.1,2.5,2.3,4.4h-4.4c0-1-0.3-1.7-0.8-2.2c-0.5-0.4-1.3-0.7-2.4-0.7c-1.1,0-1.9,0.4-2.4,1.1
		c-0.5,0.7-0.8,1.9-0.8,3.6v1.2c0,1.8,0.2,3.1,0.7,3.8c0.5,0.8,1.3,1.1,2.5,1.1c1,0,1.8-0.2,2.3-0.7c0.5-0.4,0.8-1.1,0.9-2.1H114.5z
		"/>
	<path class="st0" d="M132,22.3h-4.4v-7h-6.5v7h-4.4V5.7h4.4v6.6h6.5V5.7h4.4V22.3z"/>
</g>
<g>
	<polygon class="st0" points="22,12.7 21,9.7 20.1,12.7 16.9,12.7 19.4,14.6 18.5,17.6 21,15.8 23.6,17.6 22.6,14.6 25.2,12.7 	"/>
	<path class="st0" d="M40.5,9.5c-0.1,0.4-0.1,0.8-0.1,1.3c-0.4-0.1-0.8-0.3-1.1-0.7c-0.3-0.3-0.6-0.7-0.7-1.1c0.4,0,0.9-0.1,1.3-0.1
		l1.6-1.6L35.7,8L25.4,18.3c-0.2,0.2-0.5,0.4-0.7,0.6c-2.4,1.8-5.8,1.6-7.9-0.6c-1.5-1.5-2.1-3.7-1.6-5.7L11.7,16
		c0.4,1.8,1.3,3.4,2.6,4.7c1.8,1.8,4.2,2.8,6.8,2.8c2.6,0,5-1,6.8-2.8l8.7-8.7c0.1-0.4,0.1-0.8,0.1-1.3c0.4,0.1,0.8,0.3,1.1,0.7
		c0.3,0.3,0.6,0.7,0.7,1.1c-0.4,0-0.9,0.1-1.3,0.1l-8.7,8.7c-2,2-4.6,3.1-7.4,3.1c-2.8,0-5.5-1.1-7.4-3.1c-1.3-1.3-2.2-2.9-2.7-4.6
		l-2.7,2.7c0.7,1.6,1.7,3.1,3,4.4c2.8,2.8,6.5,4.2,10.1,4.1c3.5-0.1,7-1.4,9.7-4.1l10.3-10.3l0.8-5.7L40.5,9.5z M36.7,10.7
		c0-0.7-0.1-1.4-0.3-1.9c-0.1-0.3-0.3-0.5-0.4-0.7c0.3,0.3,0.6,0.4,1.1,0.6C37.5,8.9,38,9,38.5,9C38.3,9.7,37.4,10.6,36.7,10.7z
		 M38.5,12.6c0.2-0.7,1.1-1.6,1.8-1.8c0,1,0.3,2,0.8,2.6C40.6,12.8,39.6,12.6,38.5,12.6z"/>
	<path class="st0" d="M16.7,9.7c0,0,0.5-0.4,0.7-0.6c2.4-1.8,5.8-1.6,7.9,0.6c1.5,1.5,2.1,3.7,1.6,5.7l3.4-3.4
		c-0.4-1.8-1.3-3.4-2.6-4.7C26,5.4,23.6,4.4,21,4.4c-2.6,0-5,1-6.8,2.8l-8.7,8.7c-0.1,0.4-0.1,0.8-0.1,1.3c-0.4-0.1-0.8-0.3-1.1-0.7
		c-0.3-0.3-0.6-0.7-0.7-1.1c0.4,0,0.9-0.1,1.3-0.1l8.7-8.7c2-2,4.6-3.1,7.4-3.1c2.8,0,5.5,1.1,7.4,3.1c1.3,1.3,2.2,2.9,2.7,4.6
		l2.7-2.7c-0.7-1.6-1.7-3.1-3-4.4C28.2,1.3,24.5-0.1,20.8,0c-3.5,0.1-7,1.4-9.7,4.1L0.8,14.4L0,20.2l1.6-1.6
		c0.1-0.4,0.1-0.8,0.1-1.3c0.4,0.1,0.8,0.3,1.1,0.7c0.3,0.3,0.6,0.7,0.7,1.1c-0.4,0-0.9,0.1-1.3,0.1l-1.6,1.6L6.4,20
		C6.4,20,16.7,9.7,16.7,9.7z M1.8,17.2c0-1-0.3-2-0.8-2.6c0.5,0.5,1.5,0.8,2.6,0.8C3.4,16.1,2.5,17,1.8,17.2z M5.1,19.2
		c-0.4-0.1-1-0.2-1.5-0.2c0.2-0.7,1.1-1.6,1.8-1.8c0,0.7,0.1,1.4,0.3,1.9c0.1,0.3,0.3,0.5,0.4,0.7C5.9,19.6,5.5,19.4,5.1,19.2z"/>
</g>
</svg>
